<svg width="82" height="82" viewBox="0 0 82 82" fill="none" xmlns="http://www.w3.org/2000/svg">
<rect width="82" height="82" rx="41" fill="#E63946"/>
<path d="M54.0096 32.4845H30.8814C29.6397 32.4845 28.4645 31.9566 27.6507 31.0667C28.4457 30.1953 29.6006 29.6461 30.8814 29.6461H56.9006C57.7 29.6461 58.3461 29.0103 58.3461 28.2268C58.3461 27.4434 57.7 26.8076 56.9006 26.8076H30.8814C26.8903 26.8076 23.6538 29.9853 23.6538 33.9038V48.0961C23.6538 52.0146 26.8903 55.1922 30.8814 55.1922H54.0096C56.4048 55.1922 58.3461 53.2862 58.3461 50.9345V36.7422C58.3461 34.3906 56.4048 32.4845 54.0096 32.4845ZM55.4551 50.9345C55.4551 51.7165 54.8075 52.3538 54.0096 52.3538H30.8814C28.4905 52.3538 26.5448 50.4435 26.5448 48.0961V33.9009C27.7793 34.8078 29.2971 35.323 30.8814 35.323H54.0096C54.8075 35.323 55.4551 35.9602 55.4551 36.7422V50.9345ZM52.5641 43.8384C52.5641 44.6218 51.9165 45.2576 51.1186 45.2576C50.3206 45.2576 49.673 44.6218 49.673 43.8384C49.673 43.055 50.3206 42.4192 51.1186 42.4192C51.9165 42.4192 52.5641 43.055 52.5641 43.8384Z" fill="white"/>
<path d="M25.2458 43.501C18.3538 43.4969 12.7634 49.0806 12.7593 55.9726C12.7552 62.8646 18.3389 68.4551 25.2309 68.4592C28.542 68.4646 31.7189 67.1506 34.0587 64.8079C36.3994 62.4691 37.7155 59.2964 37.7175 55.9875C37.7216 49.0955 32.1379 43.5051 25.2458 43.501Z" fill="white"/>
<path d="M29.0625 50.9834C29.3876 50.6649 29.91 50.6701 30.2285 50.9951C30.5426 51.3155 30.5425 51.829 30.2285 52.1494L30.2266 52.1504L26.3955 55.9805L30.2266 59.8115C30.5484 60.1334 30.5485 60.6557 30.2266 60.9775C30.0721 61.1319 29.8628 61.2185 29.6445 61.2188C29.4259 61.2191 29.216 61.1322 29.0615 60.9775L25.2305 57.1465L21.4004 60.9775L21.3994 60.9766C21.2642 61.1121 21.0873 61.1964 20.8984 61.2148L20.8174 61.2188C20.3623 61.2186 19.9932 60.8496 19.9932 60.3945C19.9933 60.1761 20.0798 59.9661 20.2344 59.8115L24.0645 55.9805L20.2334 52.1494C19.9149 51.8244 19.92 51.302 20.2451 50.9834C20.5654 50.6697 21.078 50.6699 21.3984 50.9834L25.2305 54.8154L29.0615 50.9854L29.0625 50.9834Z" fill="#E63946" stroke="#E63946" stroke-width="0.4"/>
</svg>
