<svg width="44" height="44" viewBox="0 0 44 44" fill="none" xmlns="http://www.w3.org/2000/svg">
<rect width="44" height="44" rx="22" fill="#1D3557"/>
<path d="M19.7021 12.7578C21.1021 11.8144 22.9114 11.8145 24.3105 12.7578L30.1484 16.6934C30.408 16.8687 30.6488 17.074 30.8613 17.3027C31.1376 17.6002 31.1385 18.0535 30.876 18.3516L30.8203 18.4092C30.5027 18.7029 30.0076 18.6853 29.7129 18.3682C29.5811 18.2263 29.4329 18.1008 29.2715 17.9922L23.4346 14.0557C22.568 13.4712 21.4475 13.4713 20.5801 14.0557L14.7422 17.9922C14.0381 18.4672 13.6182 19.2566 13.6182 20.1055V27.834C13.6182 29.2397 14.763 30.3838 16.1699 30.3838H17.0039C17.4365 30.384 17.7871 30.7348 17.7871 31.167C17.787 31.5991 17.4365 31.95 17.0039 31.9502H16.1699C13.8983 31.9502 12.0498 30.1034 12.0498 27.834V20.1055C12.0498 18.7349 12.729 17.4597 13.8652 16.6934L19.7021 12.7578ZM29.0156 21.5879C28.036 20.9476 26.7266 20.97 25.7578 21.6396C24.6496 22.4072 24.1965 23.7791 24.6299 25.0518C24.6573 25.1333 24.6719 25.2177 24.6719 25.3037V26.5947C24.6719 27.027 24.3205 27.3779 23.8877 27.3779H22.7832V27.4277L22.7773 28.2666C22.7742 28.6965 22.4235 29.0448 21.9932 29.0449H21.126V29.0947L21.1309 30.333V30.3828H22.6064C22.8431 30.3828 23.0654 30.2908 23.2324 30.124L26.1406 27.2188C26.3256 27.0348 26.5905 26.9539 26.8467 27.0039C27.8219 27.1962 28.8239 26.8942 29.5254 26.1934C30.1211 25.5982 30.4321 24.7896 30.3916 23.9541L30.3789 23.7871C30.2843 22.8802 29.7994 22.0996 29.0156 21.5879ZM26.9932 22.832C27.4614 22.3635 28.2222 22.3642 28.6914 22.832C29.1605 23.2999 29.1606 24.0596 28.6914 24.5283C28.2231 24.997 27.4624 24.9963 26.9932 24.5283C26.5244 24.0605 26.5243 23.3007 26.9932 22.832ZM23.1045 25.4268L23.1025 25.4199C22.5169 23.5162 23.2145 21.4948 24.8662 20.3516C26.3532 19.3209 28.3668 19.2908 29.874 20.2744H29.875C32.2824 21.7554 32.6731 25.357 30.6357 27.2988L30.627 27.3076H30.626C29.6632 28.2655 28.3331 28.7348 26.9941 28.6074L26.9707 28.6055L26.9541 28.6221L24.3408 31.2324C23.8782 31.6945 23.2621 31.9492 22.6074 31.9492H21.1816C20.2926 31.9492 19.5667 31.227 19.5635 30.3398L19.5566 28.6836C19.5559 28.3611 19.6799 28.059 19.9072 27.8311C20.1346 27.604 20.436 27.4786 20.7568 27.4785H21.2158V27.4287L21.2188 27.0029C21.2236 26.3464 21.7627 25.8116 22.4199 25.8115H23.1045V25.4268Z" fill="#F4F5F7" stroke="white" stroke-width="0.1"/>
</svg>
