<svg width="11" height="12" viewBox="0 0 11 12" fill="none" xmlns="http://www.w3.org/2000/svg">
<path d="M4.875 6.5625C4.875 6.86925 5.02237 7.1415 5.25 7.3125V8.625C5.25 8.77418 5.30926 8.91726 5.41475 9.02275C5.52024 9.12824 5.66332 9.1875 5.8125 9.1875C5.96168 9.1875 6.10476 9.12824 6.21025 9.02275C6.31574 8.91726 6.375 8.77418 6.375 8.625V7.3125C6.50284 7.21662 6.60405 7.08965 6.66902 6.94365C6.73399 6.79765 6.76056 6.63746 6.74621 6.47831C6.73186 6.31915 6.67706 6.1663 6.58702 6.03428C6.49699 5.90226 6.37469 5.79544 6.23176 5.72397C6.08883 5.65251 5.93 5.61876 5.77036 5.62595C5.61072 5.63313 5.45556 5.681 5.31963 5.76501C5.18369 5.84903 5.07149 5.9664 4.99367 6.10597C4.91585 6.24555 4.875 6.4027 4.875 6.5625Z" fill="currentColor"/>
<path d="M4.5 2.25C4.5 1.65326 4.26295 1.08097 3.84099 0.65901C3.41903 0.237053 2.84674 0 2.25 0C1.65326 0 1.08097 0.237053 0.65901 0.65901C0.237053 1.08097 0 1.65326 0 2.25V2.90625C0 3.03057 0.049386 3.1498 0.137293 3.23771C0.225201 3.32561 0.34443 3.375 0.46875 3.375C0.59307 3.375 0.712299 3.32561 0.800207 3.23771C0.888114 3.1498 0.9375 3.03057 0.9375 2.90625V2.25C0.9375 1.9019 1.07578 1.56806 1.32192 1.32192C1.56806 1.07578 1.9019 0.9375 2.25 0.9375C2.5981 0.9375 2.93194 1.07578 3.17808 1.32192C3.42422 1.56806 3.5625 1.9019 3.5625 2.25V3.375H2.8125C2.41468 3.375 2.03314 3.53304 1.75184 3.81434C1.47054 4.09564 1.3125 4.47718 1.3125 4.875V9.75C1.3125 10.1478 1.47054 10.5294 1.75184 10.8107C2.03314 11.092 2.41468 11.25 2.8125 11.25H8.8125C9.21032 11.25 9.59186 11.092 9.87316 10.8107C10.1545 10.5294 10.3125 10.1478 10.3125 9.75V4.875C10.3125 4.47718 10.1545 4.09564 9.87316 3.81434C9.59186 3.53304 9.21032 3.375 8.8125 3.375H4.5V2.25ZM8.8125 4.125C9.01141 4.125 9.20218 4.20402 9.34283 4.34467C9.48348 4.48532 9.5625 4.67609 9.5625 4.875V9.75C9.5625 9.94891 9.48348 10.1397 9.34283 10.2803C9.20218 10.421 9.01141 10.5 8.8125 10.5H2.8125C2.61359 10.5 2.42282 10.421 2.28217 10.2803C2.14152 10.1397 2.0625 9.94891 2.0625 9.75V4.875C2.0625 4.67609 2.14152 4.48532 2.28217 4.34467C2.42282 4.20402 2.61359 4.125 2.8125 4.125H8.8125Z" fill="currentColor"/>
</svg>
