<svg width="18" height="18" viewBox="0 0 18 18" fill="none" xmlns="http://www.w3.org/2000/svg">
<path d="M8.09167 13.325C6.80886 13.2644 5.59872 12.7119 4.71261 11.7823C3.82651 10.8528 3.33254 9.61757 3.33333 8.33333C3.33333 5.575 5.575 3.33333 8.33333 3.33333C11.0167 3.33333 13.2 5.44167 13.325 8.09167L11.575 7.56667C11.4388 6.98898 11.1508 6.45816 10.7407 6.02906C10.3307 5.59997 9.81345 5.28817 9.24254 5.1259C8.67163 4.96364 8.06774 4.95679 7.49329 5.10606C6.91885 5.25534 6.39469 5.55532 5.97501 5.97501C5.55532 6.39469 5.25534 6.91885 5.10606 7.49329C4.95679 8.06774 4.96364 8.67163 5.1259 9.24254C5.28817 9.81345 5.59997 10.3307 6.02906 10.7407C6.45816 11.1508 6.98898 11.4388 7.56667 11.575L8.09167 13.325ZM16.6667 8.33333C16.6667 8.58333 16.6583 8.83333 16.6333 9.08333L14.9917 8.59167C15 8.50833 15 8.41667 15 8.33333C15 4.65 12.0167 1.66667 8.33333 1.66667C4.65 1.66667 1.66667 4.65 1.66667 8.33333C1.66667 12.0167 4.65 15 8.33333 15C8.41667 15 8.50833 15 8.59167 14.9917L9.08333 16.6333C8.83333 16.6583 8.58333 16.6667 8.33333 16.6667C3.73333 16.6667 0 12.9333 0 8.33333C0 3.73333 3.73333 0 8.33333 0C12.9333 0 16.6667 3.73333 16.6667 8.33333ZM13.525 11.8833L16.6667 10.8333L8.33333 8.33333L10.8333 16.6667L11.8833 13.525L15.4417 17.0833L17.0917 15.4333L13.525 11.8833Z" fill="#1D3557"/>
</svg>
