<svg width="236" height="89" viewBox="0 0 236 89" fill="none" xmlns="http://www.w3.org/2000/svg">
<path d="M113.69 28.1914H172.891C173.685 28.1914 174.446 28.5068 175.008 29.0683C175.569 29.6298 175.884 30.3913 175.884 31.1853V80.9128M79.3904 44.1964V31.1853C79.3908 30.3911 79.7066 29.6296 80.2682 29.0682C80.8299 28.5068 81.5914 28.1914 82.3855 28.1914H100.4" stroke="#1D3557" stroke-width="2.17276" stroke-linecap="round" stroke-linejoin="round"/>
<path d="M110.105 51.8099L125.875 64.0768C126.378 64.4768 127.001 64.6946 127.643 64.6946C128.285 64.6946 128.909 64.4768 129.411 64.0768L174.734 28.8203M80.5503 28.8203L94.9061 39.9876" stroke="#1D3557" stroke-width="2.17276" stroke-linecap="round" stroke-linejoin="round"/>
<path d="M147.442 50.2773L175.623 77.6888L147.442 50.2773Z" fill="white"/>
<path d="M147.442 50.2773L175.623 77.6888" stroke="#1D3557" stroke-width="2.17276" stroke-linecap="round" stroke-linejoin="round"/>
<path d="M64.986 46.4913C64.156 43.8493 61.4775 32.8655 69.3111 20.1743C75.8905 9.51387 86.1755 9.3438 94.9014 12.597" stroke="#1D3557" stroke-width="2.17276" stroke-linecap="round" stroke-linejoin="round"/>
<path d="M56.3997 47.8402C56.8856 47.6448 57.3997 47.4585 57.9418 47.2811C65.6593 44.7553 73.1967 49.7227 73.6428 51.3729" stroke="#1D3557" stroke-width="2.17276" stroke-linecap="round" stroke-linejoin="round"/>
<path d="M70.2051 59.4682C69.195 57.2792 65.1931 52.6755 61.6004 55.9001C57.7905 59.3149 60.5902 73.168 68.4357 71.7839" stroke="#1D3557" stroke-width="2.17276" stroke-linecap="round" stroke-linejoin="round"/>
<path d="M96.8627 40.6452C93.0494 39.6601 88.9145 39.2493 86.0188 40.3791C80.7576 42.4334 71.0097 47.4884 68.678 69.173C68.0551 74.9402 69.4221 78.9393 71.7606 81.6806" stroke="#1D3557" stroke-width="2.17276" stroke-linecap="round" stroke-linejoin="round"/>
<path d="M56.935 80.7804C53.6807 77.8067 51.62 74.1393 51.1621 71.6556C50.1637 66.2134 49.4785 58.1595 49.4785 58.1595C49.0963 54.5258 50.7176 50.6782 56.132 47.9386C56.132 47.9386 52.7194 30.349 60.2163 18.7069C68.6174 5.65872 77.2541 5.28659 77.2541 5.28659C85.6467 4.04054 91.4045 7.1304 95.1218 12.5406" stroke="#1D3557" stroke-width="2.17276" stroke-linecap="round" stroke-linejoin="round"/>
<path d="M97.2465 83.518C101.119 84.0232 106.215 80.1234 109.35 73.9386C112.634 67.4574 112.623 60.7271 109.506 58.134C109.708 56.2194 109.641 53.3249 110.158 49.4385C110.289 48.5326 110.432 47.6408 110.587 46.7629C110.909 45.0588 111.663 41.2146 111.663 41.2146C112.655 36.3432 113.577 31.785 113.389 27.1477C113.003 17.6154 106.946 9.16923 100.311 5.65334C85.916 -1.98124 76.6025 1.1322 76.6025 1.1322C45.7392 11.5788 50.5879 45.463 51.2546 48.9772C45.0591 51.9862 43.1735 56.28 43.6398 62.1112C43.9041 64.4518 43.7476 73.4806 46.7797 79.8439" stroke="#1D3557" stroke-width="2.17276" stroke-linecap="round" stroke-linejoin="round"/>
<path d="M95.122 12.5391C99.0683 18.2776 100.654 25.8415 100.45 31.1119C100.095 40.3193 94.9284 42.5083 93.8846 42.8602C92.5833 42.7123 91.2671 42.9463 90.0965 43.5337C86.3118 44.2073 80.1298 52.6181 76.4596 61.0458C76.4596 61.0694 76.473 61.0946 76.4781 61.1199L76.3889 61.2074C74.6699 65.1881 73.4578 72.3006 73.4578 72.3023C73.0674 73.9592 73.1169 75.6894 73.6012 77.3212C74.0855 78.9531 74.9879 80.4301 76.2188 81.6056" stroke="#1D3557" stroke-width="2.17276" stroke-linecap="round" stroke-linejoin="round"/>
<path d="M92.5865 88.4955C96.627 86.8992 97.2466 83.5147 97.2466 83.5147C97.2466 83.5147 99.5161 76.3263 93.5663 77.3922C92.1723 79.3101 89.6385 80.4349 86.8724 81.0748C72.2674 82.5684 51.4989 81.3779 29.2488 77.3922L29.0804 77.8654C28.8395 77.1736 28.4261 76.5548 27.8793 76.0675C27.3325 75.5801 26.6704 75.2403 25.9557 75.0803L18.6877 73.452C18.1357 73.3282 17.5646 73.3144 17.0072 73.4114C16.4498 73.5085 15.917 73.7144 15.4392 74.0174C14.9614 74.3205 14.548 74.7147 14.2226 75.1776C13.8972 75.6406 13.6662 76.1631 13.5427 76.7153L13.4687 77.0756C13.3449 77.6277 13.331 78.1987 13.4279 78.7561C13.5248 79.3135 13.7305 79.8464 14.0334 80.3242C14.3362 80.8021 14.7302 81.2156 15.1929 81.5411C15.6555 81.8667 16.1777 82.0979 16.7297 82.2215L23.996 83.8565C24.5541 83.9818 25.1316 83.9942 25.6945 83.893C26.2574 83.7918 26.7945 83.579 27.274 83.2672L27.183 83.5366C27.183 83.5366 37.7054 86.6972 55.1034 88.2177" stroke="#1D3557" stroke-width="2.17276" stroke-linecap="round" stroke-linejoin="round"/>
<path d="M109.506 58.1284C109.506 58.1284 99.3764 53.7504 93.5664 77.39" stroke="#1D3557" stroke-width="2.17276" stroke-linecap="round" stroke-linejoin="round"/>
<path d="M207.2 84.8813L199.343 88.0806L114.771 87.8566C114.038 87.8566 113.447 86.9675 113.451 85.8764L113.461 82.3976C113.461 81.3064 114.058 80.4241 114.789 80.4258L199.363 80.6565L207.204 83.8962C207.542 84.0242 207.54 84.7432 207.2 84.8813Z" fill="#E63946"/>
<path d="M116.442 88.4931L116.468 77.6289L137.265 78.0566M145.912 84.0107H126.854" stroke="#1D3557" stroke-width="2.17276" stroke-linecap="round" stroke-linejoin="round"/>
<path d="M0.505127 88.4961H235.345H0.505127Z" fill="white"/>
<path d="M0.505127 88.4961H235.345" stroke="#1D3557" stroke-width="2.17276" stroke-linecap="round" stroke-linejoin="round"/>
</svg>
