<svg width="19" height="19" viewBox="0 0 19 19" fill="none" xmlns="http://www.w3.org/2000/svg">
<path d="M19.6818 10.4477L19.7545 10.5755C19.9983 11.0479 20.063 11.588 19.9374 12.1017C19.8118 12.6155 19.5039 13.0703 19.0671 13.3872L18.9614 13.4638L11.209 18.4672C10.5166 18.9114 9.6765 19.0871 8.85613 18.9593L8.6843 18.9273L1.04424 17.349C0.766323 17.2907 0.515265 17.1473 0.328339 16.9401C0.141413 16.7329 0.0285873 16.4729 0.00661429 16.1988L5.24769e-06 16.1029V12.7801C-0.000935489 12.4571 0.124637 12.1458 0.35147 11.9087C0.578303 11.6716 0.889572 11.5263 1.22268 11.5021H12.0549C12.5043 11.5021 12.8282 11.7066 13.0198 12.0197L16.8993 9.77039C17.3612 9.5035 17.9138 9.42492 18.4356 9.55194C18.9574 9.67897 19.4057 10.0012 19.6818 10.4477ZM17.6528 10.8311L17.5801 10.8695L13.1983 13.4127L13.1454 13.6044C12.9858 14.1042 12.6648 14.5413 12.2295 14.8518C11.7942 15.1623 11.2674 15.3298 10.7265 15.3297L10.5745 15.3361H7.26996V14.0581H10.5745C10.8322 14.0581 11.0503 14.0134 11.2354 13.9367V12.7801H1.32182V16.1029L8.96188 17.6813C9.43983 17.7804 9.93881 17.7053 10.363 17.4704L10.4754 17.4065L18.2278 12.4031C18.6243 12.1475 18.7829 11.6555 18.6111 11.2337L18.578 11.1506L18.5516 11.1059C18.4695 10.9727 18.3431 10.8704 18.193 10.8158C18.0428 10.7613 17.878 10.7576 17.7255 10.8056L17.6528 10.8311ZM6.60906 2.18595e-07C7.62579 -0.000287203 8.62104 0.28287 9.47557 0.815544C10.3301 1.34822 11.0077 2.10782 11.4271 3.00332L11.513 3.19503H16.4698L18.4525 5.11204L16.4698 7.02906H14.1566L12.5572 8.56906L11.3411 7.39329L11.275 7.52109C10.8531 8.28446 10.2376 8.93175 9.48622 9.40228C8.73485 9.87282 7.87221 10.1512 6.97916 10.2113L6.7875 10.2241H6.60906C5.20679 10.2241 3.86196 9.68549 2.87041 8.7268C1.87886 7.76811 1.32182 6.46784 1.32182 5.11204C1.32182 3.75624 1.87886 2.45598 2.87041 1.49728C3.86196 0.538589 5.20679 2.18595e-07 6.60906 2.18595e-07ZM6.60906 1.27801C5.88074 1.27868 5.16668 1.47327 4.54521 1.84044C3.92373 2.20761 3.41885 2.73318 3.08593 3.35949C2.75301 3.98579 2.60493 4.68865 2.65791 5.39097C2.7109 6.09329 2.96291 6.76793 3.38631 7.3409C3.8097 7.91386 4.38812 8.36302 5.05813 8.63911C5.72813 8.91519 6.46384 9.00754 7.18455 8.90601C7.90525 8.80449 8.58312 8.51302 9.1438 8.06357C9.70447 7.61412 10.1263 7.02406 10.363 6.3581L10.4093 6.21113L10.548 5.75105H11.5064L12.5572 6.76067L13.608 5.75105H15.9212L16.5821 5.11204L15.9212 4.47304H10.548L10.4159 4.01934C10.1721 3.22653 9.66962 2.5312 8.98354 2.03714C8.29745 1.54309 7.46452 1.27679 6.60906 1.27801ZM4.62634 4.47304C4.80162 4.47304 4.96973 4.54036 5.09367 4.6602C5.21761 4.78003 5.28725 4.94257 5.28725 5.11204C5.28725 5.28152 5.21761 5.44405 5.09367 5.56389C4.96973 5.68372 4.80162 5.75105 4.62634 5.75105C4.45106 5.75105 4.28295 5.68372 4.15901 5.56389C4.03507 5.44405 3.96544 5.28152 3.96544 5.11204C3.96544 4.94257 4.03507 4.78003 4.15901 4.6602C4.28295 4.54036 4.45106 4.47304 4.62634 4.47304Z" fill="#1D3557"/>
</svg>
